<?xml version="1.0" standalone="no"?>
<!DOCTYPE svg PUBLIC "-//W3C//DTD SVG 20010904//EN"
 "http://www.w3.org/TR/2001/REC-SVG-20010904/DTD/svg10.dtd">
<svg version="1.0" xmlns="http://www.w3.org/2000/svg"
 width="300.000000pt" height="256.000000pt" viewBox="0 0 300.000000 256.000000"
 preserveAspectRatio="xMidYMid meet">
<metadata>
Created by potrace 1.10, written by Peter Selinger 2001-2011
</metadata>
<g transform="translate(0.000000,256.000000) scale(0.100000,-0.100000)"
fill="#000000" stroke="none">
<path d="M1120 2536 c0 -14 -5 -26 -11 -26 -5 0 -7 -4 -4 -10 3 -5 10 -10 14
-10 12 0 20 60 9 66 -4 3 -8 -6 -8 -20z"/>
<path d="M1505 2550 c5 -8 17 -21 27 -28 10 -7 16 -18 12 -23 -3 -6 -3 -17 0
-26 6 -14 8 -14 20 3 13 17 12 21 -3 34 -50 44 -64 54 -56 40z"/>
<path d="M2756 2539 c-14 -11 -42 -23 -61 -26 -47 -8 -47 -33 0 -33 22 0 35
-5 35 -13 0 -7 7 -22 15 -33 15 -18 15 -18 14 6 -4 57 2 78 27 95 30 20 40 15
25 -14 -8 -14 -8 -22 0 -27 14 -8 38 16 43 43 4 18 -1 21 -34 21 -24 1 -48 -7
-64 -19z"/>
<path d="M2915 2514 c5 -34 3 -49 -7 -55 -11 -7 -10 -11 2 -19 18 -11 25 0 35
58 4 23 11 42 16 42 5 0 9 5 9 10 0 6 -14 10 -31 10 l-31 0 7 -46z"/>
<path d="M2521 2531 c16 -24 39 -28 39 -6 0 8 -4 15 -9 15 -5 0 -17 3 -26 6
-15 6 -15 4 -4 -15z"/>
<path d="M722 2510 c2 -19 8 -34 13 -33 17 3 17 27 0 48 -15 19 -15 18 -13
-15z"/>
<path d="M1317 2522 c3 -7 -6 -24 -21 -39 -24 -24 -33 -43 -21 -43 3 0 28 22
56 49 l52 50 -35 -2 c-24 -1 -34 -6 -31 -15z"/>
<path d="M1460 2523 c0 -6 5 -15 10 -18 23 -14 -13 -37 -47 -32 -25 4 -35 1
-42 -11 -5 -10 -25 -24 -45 -32 -40 -15 -41 -21 -22 -102 7 -31 10 -61 7 -67
-4 -5 -23 -9 -43 -8 -27 1 -34 6 -30 17 5 13 4 13 -13 0 -10 -8 -16 -10 -12
-4 4 7 0 17 -7 23 -12 10 -15 7 -18 -16 -3 -25 -7 -28 -43 -29 -22 -1 -50 -2
-63 -3 -12 0 -30 -10 -39 -21 -21 -24 -45 -25 -77 -5 -22 15 -24 14 -29 -10
-4 -21 0 -28 21 -36 27 -10 63 -3 74 15 5 8 13 7 29 -2 18 -11 24 -11 39 3 10
9 29 15 43 13 13 -1 36 3 50 11 23 12 27 11 56 -15 32 -28 41 -54 18 -54 -7 0
-18 5 -24 11 -8 8 -13 8 -18 -1 -10 -17 13 -39 35 -33 24 6 26 -10 4 -31 -14
-15 -14 -16 5 -16 12 0 25 11 33 28 10 19 21 26 36 25 13 -2 22 3 22 10 0 19
-21 37 -45 37 -17 0 -54 38 -43 44 2 1 10 7 19 14 13 10 22 9 44 -2 28 -15 79
-12 101 6 7 5 16 2 25 -8 12 -14 14 -14 21 6 8 21 -15 70 -33 70 -14 0 -11 28
4 37 7 4 20 18 29 31 15 21 17 22 32 6 25 -24 31 -10 9 20 -23 33 -29 32 -48
-4 l-15 -29 -35 22 c-38 24 -47 57 -16 57 11 0 23 -5 26 -10 9 -14 25 -3 25
17 0 9 7 21 16 27 14 11 13 14 -5 36 -11 14 -20 20 -21 13z m-87 -115 c29 -15
48 -40 42 -56 -2 -7 4 -27 14 -46 14 -25 16 -37 8 -45 -14 -14 -44 -14 -52 -1
-3 6 -15 10 -26 10 -13 0 -18 5 -15 13 3 6 9 20 12 30 4 9 13 17 21 17 8 0 13
6 10 13 -2 6 -13 11 -24 9 -10 -1 -28 6 -38 17 -14 17 -15 23 -5 36 15 18 24
19 53 3z"/>
<path d="M1821 2506 c-9 -10 -9 -16 -1 -21 6 -4 14 -4 17 -1 3 3 12 1 20 -5
18 -16 18 8 -1 27 -18 17 -21 17 -35 0z"/>
<path d="M640 2474 c0 -24 5 -34 15 -34 17 0 20 16 4 25 -6 5 -4 11 7 19 16
12 15 13 -5 19 -18 4 -21 1 -21 -29z"/>
<path d="M1619 2496 c7 -8 21 -12 31 -9 31 8 23 23 -11 23 -26 0 -29 -3 -20
-14z"/>
<path d="M2341 2499 c-27 -11 -26 -14 10 -22 21 -6 28 -3 32 13 6 22 -5 24
-42 9z"/>
<path d="M2616 2495 c-3 -8 -12 -15 -21 -15 -18 0 -41 -50 -26 -59 9 -6 15
-33 12 -58 0 -6 -7 -18 -15 -26 -8 -8 -11 -19 -6 -27 10 -17 30 -4 30 21 0 10
6 19 13 19 17 0 53 38 44 46 -4 4 -13 1 -21 -5 -20 -17 -27 0 -17 37 5 17 7
33 4 36 -3 2 3 2 14 0 14 -4 18 1 19 20 2 28 -20 36 -30 11z"/>
<path d="M776 2475 c-20 -31 -20 -45 0 -45 11 0 14 6 9 20 -5 14 -2 20 9 20
17 0 22 15 7 24 -5 3 -16 -5 -25 -19z"/>
<path d="M1752 2488 c6 -16 36 -34 44 -26 3 4 4 14 1 23 -7 17 -51 21 -45 3z"/>
<path d="M2489 2495 c-8 -41 21 -125 43 -125 21 0 45 21 31 26 -26 11 -63 46
-63 60 0 8 7 17 15 20 8 4 12 10 9 15 -5 9 -33 13 -35 4z"/>
<path d="M834 2465 c-3 -8 -3 -18 0 -23 10 -17 -18 -58 -36 -54 -10 2 -18 -1
-18 -7 0 -6 5 -11 11 -11 6 0 9 -10 7 -22 -2 -18 -11 -24 -35 -26 -27 -3 -33
0 -33 17 0 10 6 22 13 24 9 4 9 6 -1 6 -7 1 -17 -10 -22 -24 -5 -14 -20 -30
-32 -35 -22 -8 -21 -9 7 -10 17 -1 40 -1 51 -1 22 2 39 -23 28 -40 -3 -5 -17
-9 -31 -9 -35 0 -20 -13 17 -16 24 -2 30 2 32 19 0 12 2 27 2 34 3 29 24 36
57 19 20 -10 36 -13 42 -7 14 14 -1 31 -29 31 -29 0 -44 28 -23 44 9 7 14 29
14 59 0 46 -10 62 -21 32z"/>
<path d="M1922 2458 c2 -13 9 -23 17 -23 23 0 23 19 0 33 -19 12 -20 11 -17
-10z"/>
<path d="M2867 2463 c-4 -3 -7 -15 -7 -25 0 -16 -5 -19 -29 -13 -29 6 -51 -8
-31 -20 15 -9 12 -45 -4 -45 -8 0 -18 5 -21 10 -5 8 -12 7 -22 -2 -13 -10 -18
-9 -33 10 -17 21 -19 21 -24 4 -4 -11 -18 -24 -31 -30 -29 -13 -32 -27 -9 -36
8 -3 12 -11 8 -17 -8 -13 35 -3 51 12 5 5 19 9 30 9 31 0 105 38 105 54 0 8 9
16 19 19 14 3 18 12 16 36 -2 34 -8 45 -18 34z"/>
<path d="M1665 2450 c-3 -5 -4 -14 0 -20 8 -13 35 -1 35 16 0 16 -26 19 -35 4z"/>
<path d="M2126 2413 c-8 -9 14 -33 30 -33 8 0 14 4 14 10 0 12 -35 31 -44 23z"/>
<path d="M1590 2400 c0 -5 4 -10 9 -10 5 0 11 -10 13 -22 2 -17 10 -23 30 -24
18 -1 25 3 21 13 -3 7 -11 13 -19 13 -7 0 -18 9 -24 20 -11 21 -30 27 -30 10z"/>
<path d="M2333 2404 c-7 -3 -13 -9 -13 -13 0 -12 65 -8 68 4 3 11 -36 17 -55
9z"/>
<path d="M2897 2396 c-13 -10 -15 -16 -7 -21 7 -4 10 -16 7 -26 -3 -10 -1 -22
4 -25 14 -8 11 -22 -12 -43 -23 -21 -18 -41 9 -41 21 0 46 50 32 64 -15 15
-12 73 6 90 14 15 14 16 -3 16 -10 0 -26 -7 -36 -14z"/>
<path d="M598 2382 c-7 -10 -21 -23 -32 -29 -17 -10 -17 -10 3 -16 14 -3 21 0
21 8 0 16 35 29 50 20 14 -9 13 8 -2 23 -16 16 -25 15 -40 -6z"/>
<path d="M2067 2374 c-3 -4 -20 -7 -38 -8 -18 -1 -34 -7 -37 -14 -4 -13 30
-17 42 -4 8 7 13 8 41 11 8 0 15 6 15 11 0 11 -13 13 -23 4z"/>
<path d="M2476 2371 c-7 -11 18 -33 27 -24 4 3 7 12 7 20 0 15 -26 18 -34 4z"/>
<path d="M2988 2373 c-5 -27 -3 -93 4 -93 4 0 8 23 8 50 0 28 -2 50 -5 50 -3
0 -6 -3 -7 -7z"/>
<path d="M488 2338 c-2 -24 -8 -33 -20 -32 -26 2 -22 -13 4 -19 27 -7 40 9 33
41 -4 15 -1 22 9 22 8 0 18 5 21 10 3 6 -5 10 -19 10 -21 0 -25 -5 -28 -32z"/>
<path d="M2258 2351 c-9 -10 -22 -21 -29 -24 -11 -3 -11 -7 -2 -18 7 -7 14
-11 15 -8 2 2 13 16 26 30 13 15 19 29 15 32 -5 3 -16 -2 -25 -12z"/>
<path d="M1006 2353 c-3 -3 -16 -7 -29 -9 -12 -1 -23 -3 -25 -3 -1 -1 2 -11 9
-23 10 -19 12 -20 21 -4 5 10 19 21 31 25 11 4 16 11 10 14 -6 4 -13 4 -17 0z"/>
<path d="M1851 2351 c-8 -5 -11 -16 -7 -26 5 -15 7 -15 22 0 19 19 7 39 -15
26z"/>
<path d="M1904 2335 c-12 -8 -15 -18 -10 -31 8 -18 9 -18 17 4 10 25 13 26 40
12 23 -13 26 -40 4 -40 -8 0 -15 -4 -15 -10 0 -13 17 -13 25 0 3 6 17 7 31 4
26 -7 34 10 9 20 -8 3 -15 12 -15 19 0 21 -65 38 -86 22z"/>
<path d="M1096 2315 c-8 -8 -22 -15 -31 -15 -12 0 -15 -6 -10 -19 4 -13 0 -23
-12 -30 -16 -9 -16 -10 5 -11 15 0 26 8 32 26 6 14 19 28 30 31 11 3 20 12 20
19 0 18 -15 18 -34 -1z"/>
<path d="M1490 2316 c0 -8 7 -17 16 -20 28 -11 34 -6 22 14 -15 23 -38 27 -38
6z"/>
<path d="M568 2303 c-12 -3 -18 -14 -18 -31 0 -36 -9 -48 -43 -56 -15 -4 -25
-11 -22 -16 7 -12 55 -2 71 14 9 8 38 101 30 95 0 -1 -9 -3 -18 -6z"/>
<path d="M2407 2295 c-15 -8 -30 -14 -33 -14 -12 0 -34 -55 -29 -71 3 -11 -1
-20 -10 -24 -25 -9 -17 -23 15 -23 39 0 47 -9 28 -30 -17 -20 -14 -43 6 -43
22 0 63 54 70 93 6 31 4 37 -10 37 -9 0 -22 -7 -29 -17 -16 -21 -45 -10 -45
17 0 12 10 25 25 32 24 11 63 58 48 58 -5 0 -20 -7 -36 -15z"/>
<path d="M1761 2274 c15 -19 87 -36 107 -25 15 8 13 11 -13 22 -39 16 -107 18
-94 3z"/>
<path d="M2790 2274 c0 -8 -4 -12 -10 -9 -12 7 -13 -15 -2 -32 5 -8 15 -4 34
12 28 24 28 27 -4 38 -12 4 -18 1 -18 -9z"/>
<path d="M896 2272 c-3 -5 -2 -21 3 -34 8 -20 10 -21 16 -6 8 20 -9 56 -19 40z"/>
<path d="M1526 2263 c-4 -9 -3 -20 3 -26 13 -13 1 -49 -15 -43 -8 3 -14 1 -14
-3 0 -5 -2 -16 -5 -24 -5 -11 4 -14 39 -13 28 1 41 5 35 11 -18 18 -9 45 21
60 37 19 41 48 6 39 -13 -3 -33 -1 -44 5 -16 8 -21 7 -26 -6z"/>
<path d="M2266 2267 c-16 -12 -16 -15 -3 -26 13 -10 16 -8 22 9 9 28 3 33 -19
17z"/>
<path d="M2565 2259 c-10 -14 -6 -17 40 -21 31 -2 40 1 43 15 3 14 -4 17 -37
17 -22 0 -43 -5 -46 -11z"/>
<path d="M2526 2225 c-4 -11 -12 -14 -27 -10 -20 7 -20 6 -4 -19 20 -29 46
-34 66 -10 9 11 10 20 3 32 -15 23 -31 26 -38 7z"/>
<path d="M2694 2228 c-8 -13 22 -38 47 -38 10 0 22 -7 27 -16 7 -13 13 -14 31
-4 30 15 55 -4 46 -37 -3 -13 -1 -23 5 -23 5 0 10 9 10 19 0 11 2 26 6 34 6
17 -47 42 -76 34 -11 -3 -20 -1 -20 3 0 7 -55 40 -66 40 -2 0 -6 -5 -10 -12z"/>
<path d="M1740 2220 c0 -5 -6 -10 -13 -10 -9 0 -12 -10 -9 -30 4 -25 1 -30
-17 -30 -15 0 -21 6 -21 21 0 14 -5 19 -17 17 -39 -8 1 -97 43 -98 7 0 14 10
17 22 5 17 9 19 21 9 10 -8 16 -9 21 -1 10 17 38 11 69 -14 30 -25 56 -25 56
1 0 11 -7 13 -24 9 -19 -5 -28 1 -47 29 -26 38 -31 40 -60 25 -22 -12 -24 -4
-9 34 6 17 6 26 0 26 -6 0 -10 -4 -10 -10z"/>
<path d="M1945 2220 l-30 -7 25 -10 c18 -8 29 -7 39 0 10 9 18 6 31 -11 22
-27 30 -28 30 -2 0 34 -35 45 -95 30z"/>
<path d="M2066 2214 c-3 -7 -1 -16 4 -19 6 -4 10 -15 10 -26 0 -10 5 -19 10
-19 6 0 10 5 10 10 0 20 28 9 58 -21 22 -23 36 -29 51 -24 11 3 20 10 18 15
-1 4 3 7 8 7 6 -1 9 -10 8 -19 -2 -10 4 -18 12 -18 16 0 21 46 7 68 -7 10 -14
10 -38 -3 -16 -8 -34 -15 -41 -15 -17 0 -63 45 -63 61 0 18 -47 21 -54 3z"/>
<path d="M2262 2207 c-10 -11 -6 -14 18 -15 16 0 32 4 35 9 4 5 2 9 -4 9 -5 0
-16 2 -24 5 -7 3 -19 0 -25 -8z"/>
<path d="M1897 2186 c-10 -27 -8 -36 7 -36 22 0 27 15 12 35 -12 17 -13 17
-19 1z"/>
<path d="M2602 2155 c4 -29 1 -51 -8 -64 -16 -22 -5 -35 20 -25 10 4 14 13 12
23 -3 9 -2 32 3 51 9 42 5 60 -16 60 -13 0 -15 -9 -11 -45z"/>
<path d="M553 2151 c-14 -18 -20 -36 -16 -50 3 -12 -1 -29 -9 -39 -9 -9 -18
-30 -22 -45 -6 -26 -5 -27 14 -17 11 6 20 19 20 29 0 26 9 31 36 21 41 -16 40
13 -1 36 -29 16 -30 47 -3 59 13 6 22 14 21 20 -3 19 -18 13 -40 -14z"/>
<path d="M672 2150 c-15 -19 -31 -30 -47 -30 -14 0 -25 -4 -25 -9 0 -13 54
-21 61 -9 8 13 58 38 75 38 8 0 14 7 14 15 0 8 -6 15 -14 15 -8 0 -21 2 -28 5
-8 3 -23 -7 -36 -25z"/>
<path d="M2672 2147 c-29 -30 -28 -35 6 -30 50 8 54 11 42 33 -14 26 -22 25
-48 -3z"/>
<path d="M780 2125 c-6 -17 -20 -27 -41 -32 -17 -3 -33 -12 -36 -19 -3 -8 -15
-14 -27 -14 -12 0 -41 -18 -65 -40 -24 -22 -52 -47 -63 -54 -22 -15 -17 -36 9
-36 8 0 27 12 42 28 35 35 136 95 173 103 20 5 31 3 34 -6 6 -16 -21 -72 -48
-100 -10 -11 -25 -29 -33 -40 -11 -16 -18 -18 -32 -10 -24 14 -73 7 -73 -10 0
-30 115 -27 134 3 9 15 45 2 57 -19 13 -24 42 -25 37 -1 -2 9 -14 19 -27 20
-20 3 -22 8 -17 35 4 18 11 34 16 35 6 2 10 10 10 18 0 8 6 24 13 35 10 17 10
23 0 26 -7 3 -13 13 -13 23 0 9 -7 23 -15 30 -9 7 -13 21 -10 31 9 29 -14 23
-25 -6z"/>
<path d="M1130 2136 c0 -9 -7 -16 -15 -16 -10 0 -15 -10 -15 -30 0 -35 17 -41
22 -7 2 14 10 22 23 22 11 0 26 4 34 9 8 5 16 4 22 -5 4 -7 11 -10 16 -6 15
16 -15 42 -51 45 -27 2 -36 -1 -36 -12z"/>
<path d="M1969 2143 c-24 -4 -25 -7 -16 -27 6 -12 28 -36 49 -52 27 -19 38
-34 34 -46 -2 -10 0 -21 5 -24 5 -3 9 -1 9 5 0 6 12 21 27 35 23 22 26 29 17
53 -12 35 -43 43 -51 14 -3 -14 -13 -21 -29 -21 -31 0 -32 32 -1 53 21 15 21
16 2 15 -11 -1 -32 -3 -46 -5z"/>
<path d="M2537 2133 c-4 -3 -7 -15 -7 -25 0 -13 -7 -18 -26 -18 -20 0 -25 -4
-20 -16 4 -11 -1 -18 -14 -21 -20 -5 -20 -7 -4 -24 18 -20 78 -26 89 -9 3 6
-5 14 -18 19 -14 6 -28 14 -31 20 -8 12 24 30 41 24 13 -5 27 32 18 47 -7 12
-19 13 -28 3z"/>
<path d="M950 2105 c0 -11 7 -14 25 -9 21 5 25 3 25 -14 0 -15 9 -22 31 -27
17 -4 33 -4 37 0 8 8 -38 44 -55 45 -7 0 -13 5 -13 10 0 6 -11 10 -25 10 -16
0 -25 -6 -25 -15z"/>
<path d="M1450 2110 c-14 -4 -46 -14 -72 -20 -27 -7 -48 -16 -48 -20 0 -9 20
-8 37 3 6 4 42 8 80 10 62 2 72 -1 102 -25 18 -16 37 -28 42 -28 20 0 -33 55
-69 73 -39 19 -37 19 -72 7z"/>
<path d="M2742 2108 c3 -7 14 -14 26 -16 14 -2 19 -8 15 -19 -4 -11 -2 -14 8
-11 16 6 19 40 4 50 -17 13 -57 9 -53 -4z"/>
<path d="M2150 2072 c0 -10 -6 -24 -12 -31 -11 -11 -9 -11 10 -2 22 12 31 51
12 51 -5 0 -10 -8 -10 -18z"/>
<path d="M1620 2075 c0 -3 13 -20 28 -36 16 -17 34 -47 42 -67 14 -40 34 -65
44 -55 10 10 7 35 -4 28 -6 -3 -15 6 -20 22 -19 51 -34 75 -62 95 -15 10 -28
17 -28 13z"/>
<path d="M2190 2060 c0 -24 25 -27 34 -4 9 23 8 24 -14 24 -13 0 -20 -7 -20
-20z"/>
<path d="M880 2061 c0 -17 19 -23 51 -16 37 8 34 13 -14 20 -22 4 -37 2 -37
-4z"/>
<path d="M1377 2059 c4 -4 26 -10 49 -12 53 -6 115 -38 148 -77 14 -18 31 -30
38 -28 18 6 -51 77 -96 97 -41 19 -154 35 -139 20z"/>
<path d="M1776 2035 c14 -19 30 -35 35 -35 5 0 9 -9 9 -20 0 -15 7 -20 24 -20
16 0 27 -7 31 -20 9 -30 61 -83 73 -76 12 7 -14 66 -29 66 -5 0 -9 9 -9 20 0
15 7 20 29 20 38 0 50 17 37 55 -8 21 -16 29 -28 27 -10 -2 -18 1 -18 7 0 6
-7 11 -15 11 -18 0 -19 -12 -3 -28 8 -8 8 -15 -1 -26 -7 -8 -10 -20 -6 -26 3
-5 3 -15 0 -20 -7 -11 -61 26 -107 73 -39 39 -54 34 -22 -8z"/>
<path d="M1235 2050 c-4 -7 -18 -10 -31 -7 -27 5 -31 -5 -10 -22 10 -9 19 -7
37 8 13 11 21 22 18 26 -4 3 -10 1 -14 -5z"/>
<path d="M2264 2049 c-8 -14 11 -33 25 -25 11 7 4 36 -9 36 -5 0 -12 -5 -16
-11z"/>
<path d="M1264 2039 c-3 -5 6 -9 19 -9 39 0 89 -21 83 -35 -3 -9 11 -17 42
-25 26 -6 58 -20 72 -31 14 -12 20 -18 13 -15 -6 3 -13 1 -15 -6 -6 -18 -49
-20 -75 -3 -16 11 -23 12 -23 3 0 -9 -3 -9 -12 0 -7 7 -33 12 -59 12 -47 0
-69 -7 -119 -35 -22 -13 -23 -15 -5 -14 11 0 31 6 45 14 28 16 70 20 70 6 0
-12 -30 -25 -52 -22 -9 1 -22 -7 -28 -19 -6 -11 -15 -18 -21 -15 -8 6 -13 -8
-10 -28 1 -5 -8 -11 -19 -14 -12 -3 -19 -11 -16 -19 3 -7 2 -16 -3 -18 -10 -6
-6 -85 5 -89 13 -4 24 51 11 56 -8 3 -4 13 9 28 12 13 29 38 37 54 13 26 25
33 84 48 37 9 94 15 126 14 52 -3 61 1 59 24 -1 3 13 5 29 4 21 -1 33 4 41 19
11 20 11 20 19 1 5 -14 8 -15 8 -5 1 16 -52 80 -65 80 -4 0 -4 -3 -1 -7 4 -3
2 -12 -4 -19 -8 -10 -6 -12 9 -9 12 2 27 -4 34 -13 12 -15 11 -16 -4 -3 -16
12 -22 9 -19 -11 1 -11 -31 3 -72 33 -21 16 -55 33 -74 40 -26 8 -32 14 -22
20 8 5 10 9 4 9 -5 1 -29 3 -52 5 -24 2 -45 -1 -49 -6z"/>
<path d="M2394 2035 c4 -11 -1 -15 -19 -15 -27 0 -32 -9 -14 -27 19 -19 0 -37
-20 -19 -11 10 -21 12 -31 6 -16 -10 -6 -26 21 -32 25 -5 89 24 89 41 0 9 3
26 6 39 5 18 2 22 -16 22 -16 0 -20 -4 -16 -15z"/>
<path d="M2660 2030 c0 -19 -4 -22 -34 -18 -19 2 -32 0 -30 -4 3 -4 -3 -8 -14
-8 -10 0 -27 -9 -37 -20 -20 -22 -55 -26 -73 -8 -15 15 -15 8 1 -31 l13 -31
34 30 c39 35 60 38 67 10 8 -31 31 -21 69 31 30 41 32 48 19 59 -13 10 -15 9
-15 -10z"/>
<path d="M1616 2025 c-7 -20 25 -99 42 -103 9 -2 12 4 8 18 -3 11 -9 30 -12
43 -4 12 -12 30 -19 40 -11 16 -13 16 -19 2z"/>
<path d="M973 2012 c-4 -17 -10 -21 -29 -16 -26 7 -31 -5 -11 -25 12 -13 9
-18 -40 -47 -10 -7 -14 -15 -9 -20 5 -5 11 -4 13 4 3 6 11 12 19 12 31 0 88
89 70 108 -4 3 -9 -4 -13 -16z"/>
<path d="M2716 1989 c5 -23 0 -30 -35 -50 -23 -12 -41 -29 -41 -36 0 -7 2 -13
5 -13 10 0 60 33 72 48 10 13 17 12 47 -6 22 -13 38 -17 42 -11 6 11 -23 38
-43 39 -6 0 -21 12 -32 28 l-21 27 6 -26z"/>
<path d="M2080 1981 c0 -11 39 -25 47 -18 3 3 2 10 -2 16 -8 13 -45 15 -45 2z"/>
<path d="M1985 1933 c9 -36 8 -35 39 -27 19 4 26 13 26 30 0 21 -5 24 -36 24
-34 0 -36 -1 -29 -27z"/>
<path d="M1755 1926 c-6 -22 -4 -31 9 -38 9 -5 16 -15 16 -23 0 -7 3 -15 8
-17 4 -1 15 -19 24 -38 14 -30 17 -32 17 -12 1 13 5 20 11 17 11 -7 1 27 -11
35 -11 8 -13 33 -4 53 10 24 -2 34 -18 14 -14 -19 -33 -11 -39 18 -4 17 -6 16
-13 -9z"/>
<path d="M2835 1918 c-13 -43 -9 -65 16 -71 16 -4 19 0 19 27 0 18 -5 37 -12
44 -9 9 -9 12 0 12 7 0 12 5 12 10 0 24 -26 7 -35 -22z"/>
<path d="M2085 1919 c-6 -9 21 -38 37 -39 12 0 18 18 12 34 -7 18 -39 22 -49
5z"/>
<path d="M1106 1893 c2 -39 3 -40 19 -19 11 14 12 23 4 33 -18 20 -25 16 -23
-14z"/>
<path d="M2411 1886 c-9 -11 -7 -22 10 -50 23 -40 50 -45 122 -25 28 8 42 7
53 -2 10 -8 14 -8 14 0 0 6 11 11 25 11 14 0 25 5 25 10 0 13 -12 13 -44 0
-20 -7 -27 -6 -35 8 -8 13 -13 14 -33 5 -12 -6 -40 -14 -61 -18 -29 -5 -39 -2
-43 10 -4 9 1 21 11 29 10 7 15 18 11 24 -10 16 -41 15 -55 -2z"/>
<path d="M2543 1893 c-24 -2 -43 -9 -43 -15 0 -5 6 -8 14 -5 8 3 28 2 44 -3
20 -5 34 -4 41 3 15 15 14 27 -1 25 -7 -1 -32 -3 -55 -5z"/>
<path d="M2060 1866 c0 -25 26 -54 38 -42 4 4 0 13 -8 19 -9 7 -14 20 -12 30
2 9 -1 17 -7 17 -6 0 -11 -11 -11 -24z"/>
<path d="M2702 1877 c-33 -15 -27 -30 9 -23 17 3 35 6 40 6 5 0 9 4 9 9 0 14
-33 19 -58 8z"/>
<path d="M2216 1865 c-3 -8 0 -15 7 -15 7 0 23 -3 37 -7 l25 -6 -27 22 c-31
25 -34 26 -42 6z"/>
<path d="M2348 1866 c-27 -20 -23 -56 6 -56 13 0 29 7 36 16 11 12 10 18 -6
34 -16 16 -22 17 -36 6z"/>
<path d="M2014 1825 c-3 -14 -4 -28 -1 -31 10 -10 27 7 27 26 0 30 -19 33 -26
5z"/>
<path d="M2918 1843 c-35 -9 -9 -44 32 -42 16 1 19 3 8 6 -21 5 -23 14 -6 31
13 13 2 15 -34 5z"/>
<path d="M1067 1820 c6 -22 11 -24 33 -10 13 9 13 11 0 20 -24 16 -39 12 -33
-10z"/>
<path d="M1848 1758 c3 -24 11 -56 19 -73 13 -29 13 -28 7 20 -7 50 -20 95
-28 95 -2 0 -2 -19 2 -42z"/>
<path d="M2063 1765 c-13 -12 -23 -27 -23 -33 0 -6 -13 -25 -29 -42 -30 -33
-63 -35 -75 -5 -13 34 -26 12 -26 -45 0 -33 -4 -60 -10 -60 -5 0 -10 -7 -10
-16 0 -14 1 -14 16 0 8 9 25 16 36 16 20 0 20 1 5 18 -28 31 -21 48 17 48 26
0 40 7 56 26 27 35 57 44 79 24 10 -9 26 -13 39 -9 30 7 28 23 -3 23 -21 0
-25 5 -25 29 0 41 -20 52 -47 26z"/>
<path d="M903 1750 l-23 -18 30 -4 c24 -4 30 -1 30 13 0 26 -12 29 -37 9z"/>
<path d="M2299 1663 c-13 -35 -5 -53 21 -46 11 3 19 8 16 11 -3 2 -1 12 4 21
6 13 3 20 -11 29 -17 11 -21 9 -30 -15z"/>
<path d="M1171 1627 c-7 -13 -11 -27 -10 -33 6 -31 -3 -38 -22 -15 -16 20 -22
22 -32 11 -9 -10 -9 -13 0 -17 10 -3 10 -9 1 -23 -7 -11 -8 -23 -4 -27 5 -4
11 -2 13 5 7 20 33 14 43 -10 7 -20 9 -17 11 20 2 47 2 48 13 80 11 32 2 37
-13 9z"/>
<path d="M836 1629 c-21 -3 -48 -4 -59 -1 -14 3 -18 1 -13 -6 4 -7 34 -12 75
-12 44 0 74 -5 87 -15 22 -17 54 -20 54 -5 0 6 -9 10 -19 10 -11 0 -22 4 -25
9 -11 17 -61 27 -100 20z"/>
<path d="M1850 1619 c0 -8 5 -42 11 -75 11 -52 15 -81 18 -106 1 -11 51 -10
51 0 0 5 -11 19 -24 31 -16 15 -23 31 -20 45 2 12 -5 44 -16 71 -10 28 -19 43
-20 34z"/>
<path d="M2552 1609 c-10 -15 -10 -25 -3 -32 7 -7 13 -2 21 17 12 33 12 36 2
36 -4 0 -13 -10 -20 -21z"/>
<path d="M1620 1580 c0 -5 -7 -7 -15 -4 -8 4 -21 2 -28 -4 -27 -22 -58 -24
-72 -5 -8 10 -15 13 -15 7 0 -6 9 -19 20 -29 11 -10 20 -26 20 -37 0 -10 1
-18 3 -19 1 0 21 -2 45 -5 34 -4 42 -2 42 11 0 13 4 14 21 5 11 -7 31 -9 42
-6 12 3 38 2 57 -2 19 -4 45 -6 58 -4 23 3 23 4 6 30 -25 41 -44 52 -86 52
-21 0 -38 5 -38 10 0 6 -5 10 -11 10 -6 0 -9 -8 -7 -17 2 -13 13 -18 35 -19
18 0 40 -7 50 -16 10 -8 25 -18 33 -21 12 -4 11 -6 -3 -6 -10 -1 -32 6 -49 15
-16 9 -27 11 -24 5 5 -7 -9 -11 -41 -11 -35 0 -44 3 -33 10 13 8 12 10 -3 10
-9 0 -26 -5 -37 -12 -10 -7 -23 -9 -27 -5 -12 12 18 27 56 27 26 0 32 3 27 16
-3 9 -6 18 -6 20 0 2 -4 4 -10 4 -5 0 -10 -4 -10 -10z"/>
<path d="M2331 1581 c-8 -5 -20 -7 -27 -4 -6 2 -15 0 -19 -6 -3 -6 0 -11 8
-11 8 0 20 -7 27 -15 17 -21 27 -19 34 7 7 27 -4 40 -23 29z"/>
<path d="M1315 1563 c-11 -2 -27 -7 -35 -10 -8 -3 -24 -8 -35 -10 -26 -5 -39
-19 -31 -32 5 -7 17 -3 36 11 23 16 42 21 86 19 67 -2 101 -15 61 -23 -15 -3
-24 -1 -21 3 3 5 1 9 -5 9 -5 0 -12 -4 -16 -10 -3 -5 -22 -8 -41 -6 -22 1 -44
-4 -57 -14 -12 -9 -29 -20 -37 -23 -10 -4 -8 -6 7 -6 12 -1 32 3 45 8 13 5 45
5 71 1 72 -11 97 -3 97 30 0 23 -7 30 -43 44 -44 16 -48 17 -82 9z"/>
<path d="M1929 1543 c-30 -35 -33 -46 -10 -38 15 5 21 2 21 -10 0 -9 4 -14 9
-11 15 10 19 44 7 61 -11 15 -13 15 -27 -2z"/>
<path d="M2650 1543 c0 -5 11 -13 25 -20 25 -11 42 -2 30 17 -7 12 -55 14 -55
3z"/>
<path d="M2730 1514 c-19 -49 -10 -56 29 -24 19 17 21 23 11 35 -18 22 -29 19
-40 -11z"/>
<path d="M2389 1518 c-1 -2 -3 -12 -4 -23 -2 -11 -6 -27 -9 -36 -4 -9 0 -21 8
-28 13 -11 17 -9 25 12 8 21 15 24 50 21 33 -2 41 1 41 14 0 12 -10 18 -37 20
-21 1 -42 7 -47 12 -9 9 -24 13 -27 8z"/>
<path d="M2592 1499 c-7 -11 -10 -29 -7 -40 5 -15 10 -17 26 -9 22 12 25 42 6
58 -10 8 -16 6 -25 -9z"/>
<path d="M2000 1475 c0 -18 24 -30 40 -20 8 5 8 11 -1 21 -15 19 -39 18 -39
-1z"/>
<path d="M2815 1471 c-8 -25 1 -41 21 -41 11 0 14 8 12 27 -4 33 -24 41 -33
14z"/>
<path d="M1093 1458 c-7 -9 -6 -39 3 -87 7 -41 11 -78 9 -81 -2 -4 14 -24 35
-45 22 -22 40 -49 40 -60 0 -31 37 -101 62 -119 30 -21 34 -13 10 21 -22 31
-52 113 -52 142 0 10 -11 23 -24 29 -28 13 -43 55 -53 150 -6 62 -12 73 -30
50z"/>
<path d="M1626 1459 c25 -10 66 -11 81 -1 6 4 -14 7 -44 8 -33 0 -48 -3 -37
-7z"/>
<path d="M2630 1441 c0 -5 -9 -11 -20 -14 -22 -6 -28 -37 -7 -37 7 0 18 9 25
20 7 11 19 20 28 20 8 0 12 5 9 10 -8 12 -35 13 -35 1z"/>
<path d="M2888 1418 c-5 -34 3 -88 12 -88 11 0 24 85 15 99 -11 18 -23 12 -27
-11z"/>
<path d="M1978 1395 c-8 -17 -18 -42 -22 -58 -10 -40 -41 -69 -69 -62 -22 6
-24 2 -35 -70 -12 -75 -9 -101 8 -90 4 3 6 15 3 26 -5 19 -3 21 21 17 33 -7
43 7 16 22 -24 13 -26 38 -4 47 42 16 84 74 84 116 0 33 10 40 31 21 11 -10
19 -12 24 -5 3 6 -1 14 -10 17 -9 4 -20 16 -24 28 -8 19 -9 19 -23 -9z"/>
<path d="M2670 1397 c-10 -17 -10 -19 5 -13 10 3 28 0 41 -9 27 -17 37 -8 21
20 -15 26 -51 27 -67 2z"/>
<path d="M2780 1391 c0 -11 29 -35 35 -29 10 9 -7 38 -21 38 -8 0 -14 -4 -14
-9z"/>
<path d="M1324 1334 c-40 -41 -53 -59 -45 -67 8 -8 24 2 56 37 41 45 65 86 51
86 -3 0 -31 -25 -62 -56z"/>
<path d="M1614 1382 c3 -6 2 -21 -3 -35 -7 -18 -19 -26 -46 -30 -21 -3 -45
-13 -54 -21 -14 -13 -21 -12 -56 4 -24 11 -44 15 -49 10 -11 -11 11 -40 30
-40 7 0 15 -8 18 -18 5 -13 16 -19 41 -19 19 0 33 2 30 5 -11 11 18 42 38 42
23 0 65 54 59 75 -2 6 21 -14 50 -42 30 -29 59 -53 65 -53 6 0 13 -8 15 -17 3
-17 4 -17 10 -1 5 12 -11 32 -60 76 -70 61 -100 83 -88 64z"/>
<path d="M1872 1371 c-18 -11 -26 -67 -12 -76 10 -6 12 -1 8 19 -3 14 -2 26 2
26 8 0 23 31 17 36 -1 2 -8 0 -15 -5z"/>
<path d="M2303 1324 c-8 -22 15 -43 27 -24 5 8 10 21 10 28 0 17 -30 15 -37
-4z"/>
<path d="M2363 1326 c9 -7 17 -19 17 -25 0 -7 7 -20 16 -28 13 -14 17 -14 25
-2 15 24 11 49 -7 42 -10 -4 -20 0 -26 10 -5 10 -17 17 -26 17 -16 -1 -16 -2
1 -14z"/>
<path d="M2853 1319 c-31 -12 -30 -33 1 -25 21 5 25 2 32 -27 3 -17 8 -59 9
-92 2 -67 13 -228 20 -321 4 -42 1 -70 -10 -90 -16 -32 -20 -33 -116 -16 -25
5 -54 6 -64 2 -15 -5 -12 -10 20 -28 28 -17 40 -20 51 -11 16 13 37 2 30 -17
-8 -21 8 -17 22 7 11 17 16 18 28 8 24 -20 52 17 62 81 9 58 8 210 -2 345 -9
116 -9 118 -28 139 -10 11 -18 25 -18 32 0 19 -12 23 -37 13z"/>
<path d="M2150 1296 c0 -13 7 -27 16 -30 10 -4 13 -13 9 -27 -5 -16 -3 -20 6
-17 9 3 13 17 11 39 -6 54 -42 84 -42 35z"/>
<path d="M2681 1303 c-23 -5 -32 -11 -66 -41 -20 -18 -10 -32 20 -32 15 0 31
10 41 25 9 14 25 25 35 25 11 0 19 7 19 15 0 15 -5 16 -49 8z"/>
<path d="M1320 1242 c0 -7 4 -12 10 -12 5 0 7 -7 4 -15 -4 -8 -1 -15 6 -15 7
0 26 -10 43 -22 27 -20 44 -23 124 -22 77 0 98 4 121 20 15 11 35 23 45 27 23
9 18 41 -7 45 -14 3 -17 0 -13 -11 4 -11 -3 -17 -24 -22 -16 -4 -29 -13 -29
-20 0 -16 -61 -31 -86 -21 -27 10 -3 28 32 23 19 -3 37 -1 39 4 3 4 -33 8 -80
8 -47 0 -85 -4 -85 -9 0 -4 16 -6 35 -3 27 4 35 1 35 -11 0 -23 -55 -21 -72 3
-7 10 -24 22 -38 26 -14 4 -33 14 -42 23 -12 9 -18 11 -18 4z"/>
<path d="M2236 1215 c-8 -23 -8 -53 2 -58 12 -7 72 13 72 23 0 6 -9 10 -20 10
-14 0 -20 6 -18 17 4 22 -28 29 -36 8z"/>
<path d="M111 1183 c-28 -43 -14 -42 29 1 28 30 30 35 13 33 -11 0 -30 -16
-42 -34z"/>
<path d="M1789 1131 c-27 -27 -31 -41 -14 -41 8 0 20 12 26 26 12 33 9 36 -12
15z"/>
<path d="M100 1089 c-13 -24 -8 -34 15 -26 16 7 21 47 5 47 -5 0 -14 -9 -20
-21z"/>
<path d="M199 1079 l-24 -20 25 7 c31 8 45 20 32 28 -5 3 -21 -3 -33 -15z"/>
<path d="M1448 1093 c-21 -5 -24 -22 -5 -25 36 -4 124 -5 140 -1 14 4 15 8 7
18 -14 17 -69 14 -80 -5 -8 -12 -10 -12 -16 3 -6 17 -14 19 -46 10z"/>
<path d="M1734 1081 c15 -17 13 -31 -6 -31 -5 0 -6 5 -2 11 4 7 0 10 -11 7
-10 -1 -23 -12 -29 -23 -21 -37 -63 -64 -90 -57 -5 2 -6 -5 -4 -16 4 -14 0
-18 -21 -17 -14 0 -37 -6 -50 -14 -21 -13 -25 -13 -36 2 -9 12 -14 14 -23 5
-7 -7 -12 -8 -12 -2 0 6 -13 20 -30 32 -24 18 -28 19 -23 5 4 -9 -11 3 -33 27
-56 64 -74 75 -74 45 0 -8 5 -15 10 -15 6 0 10 -7 10 -17 0 -16 43 -60 87 -90
13 -8 42 -14 70 -13 26 0 56 1 66 1 9 0 17 5 17 11 0 6 6 6 15 -2 12 -10 19
-10 27 -2 15 15 32 16 23 2 -3 -6 1 -7 9 -4 9 3 16 12 16 20 0 13 13 19 33 15
5 -1 6 8 2 19 -5 15 -3 18 9 14 9 -3 26 5 41 20 14 14 30 26 35 26 21 0 8 36
-16 47 -25 12 -26 11 -10 -6z"/>
<path d="M1840 1039 c0 -43 5 -56 26 -75 29 -28 39 -30 30 -8 -6 15 0 16 39
11 27 -4 45 -3 45 3 0 6 -7 10 -15 10 -8 0 -15 5 -15 10 0 6 -18 10 -40 10
-30 0 -42 5 -51 22 -9 18 -8 24 6 34 15 12 15 13 -4 24 -20 10 -21 8 -21 -41z"/>
<path d="M2000 1075 c-7 -9 -21 -13 -31 -10 -14 5 -17 2 -13 -9 3 -9 12 -16
20 -16 7 0 18 -9 24 -20 12 -23 40 -27 40 -6 0 8 -7 16 -15 20 -8 3 -15 13
-15 21 0 9 5 13 10 10 6 -3 10 1 10 9 0 20 -14 20 -30 1z"/>
<path d="M1895 1059 c-8 -25 -3 -31 19 -23 20 8 21 44 2 44 -8 0 -18 -9 -21
-21z"/>
<path d="M2070 1020 c0 -11 -6 -20 -14 -20 -14 0 -26 -21 -26 -46 0 -8 8 -14
19 -14 12 0 27 17 43 50 l25 50 -24 0 c-16 0 -23 -6 -23 -20z"/>
<path d="M121 1006 c-14 -14 -21 -29 -17 -33 9 -9 49 32 44 47 -2 6 -13 1 -27
-14z"/>
<path d="M940 990 c-7 -16 -24 -42 -39 -57 -14 -16 -30 -37 -36 -47 -13 -26
-35 -32 -35 -10 0 16 -2 15 -20 -4 -27 -29 -50 -28 -50 1 -1 21 -2 20 -29 -9
-15 -17 -40 -34 -54 -38 -39 -9 -87 -66 -57 -66 6 0 10 5 10 11 0 6 6 9 14 6
8 -3 20 1 26 9 7 8 19 14 26 14 8 0 14 6 14 14 0 10 10 14 33 13 17 0 40 3 50
8 16 6 18 4 17 -16 -3 -38 -1 -51 9 -45 5 3 9 16 9 29 0 16 19 44 56 80 31 31
56 61 56 67 0 5 9 19 20 30 12 12 18 25 15 30 -11 17 -22 11 -35 -20z"/>
<path d="M1270 975 c-1 -22 -5 -48 -9 -58 -7 -18 -101 -77 -121 -77 -6 0 -18
-7 -27 -16 -34 -30 -136 -84 -159 -84 -15 0 -24 -6 -24 -15 0 -9 -8 -18 -17
-22 -10 -3 -28 -15 -40 -26 -28 -25 -43 -15 -43 29 0 19 -4 34 -10 34 -5 0
-10 -18 -10 -41 0 -56 -16 -82 -45 -75 -16 4 -25 1 -29 -11 -6 -14 -8 -14 -21
3 -14 18 -14 18 -15 -3 0 -31 -34 -63 -65 -63 -15 0 -25 -5 -24 -12 4 -21 -12
-78 -22 -78 -5 0 -9 -7 -9 -15 0 -13 -19 -64 -41 -106 -5 -12 -2 -22 10 -33
18 -16 19 -15 25 11 4 15 19 61 34 102 23 63 34 79 77 111 28 21 86 57 130 80
44 24 105 59 135 78 30 19 114 67 185 105 165 88 166 89 158 141 -10 68 -22
88 -23 41z"/>
<path d="M2375 1002 c-11 -4 -29 -13 -40 -19 -17 -10 -18 -14 -6 -22 10 -6 22
-4 36 5 12 8 24 11 28 8 12 -12 37 5 31 21 -6 16 -16 17 -49 7z"/>
<path d="M2241 951 c-17 -21 -31 -44 -31 -49 0 -6 -8 -15 -17 -21 -15 -8 -16
-12 -4 -34 32 -60 -32 -63 -130 -7 -39 22 -77 40 -84 40 -7 0 -18 7 -25 15
-14 17 -40 20 -40 5 0 -16 69 -55 307 -171 331 -161 335 -163 341 -179 3 -8
20 -39 38 -68 27 -46 70 -173 89 -266 6 -28 6 -28 26 -10 17 15 18 20 6 29
-12 8 -22 37 -32 85 -5 25 -50 162 -62 189 -8 19 -28 46 -43 61 -15 15 -33 37
-40 50 -7 14 -18 20 -29 17 -16 -4 -35 3 -106 39 -70 36 -88 44 -99 44 -8 0
-25 9 -38 20 -14 10 -28 17 -30 14 -3 -2 -11 2 -18 11 -8 10 -10 32 -5 73 5
48 11 61 34 77 33 22 54 52 46 65 -11 17 -23 11 -54 -29z"/>
<path d="M2442 978 c3 -7 15 -19 29 -25 13 -7 20 -13 15 -13 -16 0 28 -36 52
-42 28 -8 41 11 19 27 -10 7 -17 17 -17 24 0 6 -8 11 -18 11 -10 0 -27 7 -38
15 -24 18 -47 19 -42 3z"/>
<path d="M834 954 c3 -9 6 -20 6 -25 0 -6 5 -7 10 -4 16 10 12 45 -6 45 -11 0
-14 -5 -10 -16z"/>
<path d="M376 928 c-9 -12 -14 -24 -11 -26 8 -8 56 29 50 38 -10 16 -23 12
-39 -12z"/>
<path d="M410 879 c-25 -23 -75 -63 -112 -91 -38 -27 -68 -51 -68 -54 0 -2 18
-4 40 -4 30 0 40 4 40 16 0 9 13 31 29 49 22 26 32 31 41 22 10 -9 14 -9 17 0
3 7 13 23 24 35 16 20 20 21 29 8 5 -8 7 -27 4 -42 -3 -17 -1 -28 5 -28 7 0
11 25 11 65 0 36 -3 65 -7 65 -5 -1 -28 -19 -53 -41z"/>
<path d="M60 887 c-31 -28 -64 -77 -56 -85 3 -3 6 0 6 6 0 6 20 25 45 43 25
18 45 38 45 46 0 18 -11 16 -40 -10z"/>
<path d="M242 870 c-18 -11 -30 -25 -27 -30 7 -11 58 14 77 38 17 19 -12 15
-50 -8z"/>
<path d="M1878 858 c3 -18 0 -33 -9 -38 -12 -8 -25 -60 -15 -60 23 0 47 112
28 124 -5 3 -6 -9 -4 -26z"/>
<path d="M2565 870 c-18 -7 -19 -8 -2 -15 21 -9 50 1 42 15 -7 12 -13 12 -40
0z"/>
<path d="M1280 818 c1 -66 68 -155 163 -216 107 -69 153 -66 267 19 68 50 151
129 135 129 -6 -1 -28 -19 -50 -40 -22 -22 -45 -38 -52 -35 -7 2 -13 -2 -13
-11 0 -8 -11 -19 -24 -24 -13 -5 -27 -14 -31 -20 -3 -5 -24 -20 -47 -31 -58
-29 -106 -20 -187 34 -82 56 -118 100 -132 161 -12 56 -29 76 -29 34z"/>
<path d="M61 795 c-27 -31 -33 -65 -12 -65 14 0 29 23 24 36 -3 7 9 20 28 29
24 13 29 19 18 26 -21 13 -25 12 -58 -26z"/>
<path d="M390 772 c0 -7 -10 -16 -22 -21 -21 -8 -21 -8 4 -13 40 -7 57 7 36
29 -12 11 -18 13 -18 5z"/>
<path d="M2639 766 c16 -19 44 -21 39 -3 -3 6 -15 14 -28 15 -21 3 -22 2 -11
-12z"/>
<path d="M1153 758 c-21 -27 -43 -117 -53 -213 -5 -55 -17 -125 -26 -155 -9
-30 -22 -77 -30 -105 -23 -80 -28 -183 -11 -235 12 -37 15 -40 16 -18 1 15 6
30 11 33 6 3 10 11 10 18 0 6 -7 2 -15 -9 -14 -18 -14 -18 -16 6 -5 74 21 224
45 263 16 25 36 142 36 214 0 45 29 178 44 202 10 15 1 14 -11 -1z"/>
<path d="M130 735 c-13 -14 -20 -25 -16 -25 12 0 56 32 56 41 0 16 -16 10 -40
-16z"/>
<path d="M450 735 c-11 -13 -8 -15 13 -15 30 0 44 15 21 24 -21 8 -20 8 -34
-9z"/>
<path d="M740 701 c0 -17 5 -31 10 -31 6 0 10 11 10 24 0 14 -4 28 -10 31 -6
4 -10 -7 -10 -24z"/>
<path d="M175 682 c-16 -2 -37 -5 -45 -8 -22 -8 8 -24 45 -23 25 0 90 26 75
29 -15 4 -49 5 -75 2z"/>
<path d="M449 672 c-82 -13 -87 -16 -85 -38 0 -14 7 -24 16 -25 8 0 48 -4 88
-8 40 -4 75 -4 76 -1 2 3 1 23 -3 45 l-6 40 -86 -13z m71 -27 c0 -21 -28 -31
-43 -16 -9 9 -8 14 3 21 22 14 40 12 40 -5z m-66 -4 c7 -10 -45 -22 -59 -13
-5 3 1 9 15 13 36 10 38 10 44 0z"/>
<path d="M2127 655 c3 -16 10 -41 15 -55 6 -14 14 -74 20 -135 5 -60 14 -150
18 -200 l8 -90 -3 115 c-6 168 -23 304 -45 352 -15 34 -18 37 -13 13z"/>
<path d="M265 636 c-49 -14 -33 -30 28 -28 48 2 54 7 37 27 -14 17 -12 17 -65
1z"/>
<path d="M85 600 c3 -5 13 -10 20 -10 8 0 29 -13 47 -28 18 -16 48 -37 66 -47
17 -11 32 -27 32 -37 0 -10 19 -29 43 -44 23 -15 66 -43 95 -62 29 -19 56 -31
60 -27 4 4 -4 14 -17 23 -13 9 -40 31 -60 49 -20 18 -43 33 -52 33 -21 0 -54
25 -54 41 0 13 -50 53 -120 97 -37 23 -71 30 -60 12z"/>
<path d="M66 545 c10 -15 26 -25 39 -25 14 0 26 -7 29 -18 8 -24 51 -63 101
-91 33 -19 23 -7 -52 68 -56 56 -100 91 -113 91 -20 0 -20 -1 -4 -25z"/>
<path d="M290 545 c31 -33 57 -48 64 -36 3 5 -11 20 -32 32 -54 34 -60 35 -32
4z"/>
<path d="M380 561 c0 -10 27 -17 113 -27 35 -4 57 -3 57 4 0 5 -24 13 -52 16
-29 4 -68 9 -85 12 -19 3 -33 1 -33 -5z"/>
<path d="M954 525 c4 -22 11 -94 16 -160 16 -213 29 -325 40 -343 7 -13 9 -7
5 23 -6 44 -10 90 -24 275 -9 125 -26 228 -37 239 -4 3 -4 -12 0 -34z"/>
<path d="M1818 543 c-20 -24 -72 -167 -98 -271 -31 -126 -59 -266 -54 -272 11
-10 22 26 47 149 29 138 99 374 118 397 17 20 5 17 -13 -3z"/>
<path d="M2505 510 c-3 -5 -14 -10 -24 -10 -26 0 -56 -37 -90 -110 -30 -66
-96 -278 -88 -286 2 -3 19 42 37 98 51 161 84 227 138 275 26 24 44 43 40 43
-4 0 -10 -4 -13 -10z"/>
<path d="M377 492 c-17 -7 -17 -9 -3 -21 9 -7 21 -11 28 -9 7 3 22 2 33 -2 17
-6 54 14 44 24 -10 9 -86 14 -102 8z"/>
<path d="M0 457 c0 -16 6 -41 14 -55 8 -15 29 -61 46 -102 36 -81 47 -100 62
-100 5 0 0 13 -11 29 -12 16 -21 34 -21 40 0 16 26 13 40 -4 18 -21 29 -19 23
5 -3 11 -14 20 -24 20 -17 0 -59 62 -113 165 l-15 30 -1 -28z"/>
<path d="M1418 461 c12 -11 22 -23 22 -29 0 -5 9 -17 21 -28 11 -10 32 -42 45
-71 14 -29 28 -53 30 -53 8 0 -2 43 -19 81 -17 38 -94 119 -112 119 -5 -1 0
-9 13 -19z"/>
<path d="M840 441 c0 -20 42 -182 46 -178 3 2 -5 44 -17 93 -20 85 -29 112
-29 85z"/>
<path d="M1520 430 c25 -22 47 -25 70 -10 20 12 13 16 -44 24 l-49 6 23 -20z"/>
<path d="M687 423 c11 -10 37 -30 56 -45 40 -31 87 -100 137 -200 19 -38 38
-68 42 -68 14 0 9 13 -53 122 -69 119 -115 181 -133 175 -6 -2 -24 5 -41 15
-26 17 -27 17 -8 1z"/>
<path d="M1612 400 c-13 -16 -29 -30 -37 -30 -8 0 -15 -4 -15 -10 0 -19 37
-10 60 15 13 14 30 25 38 25 12 0 12 3 2 15 -17 21 -23 19 -48 -15z"/>
<path d="M150 405 c0 -9 70 -137 91 -166 11 -16 25 -29 30 -29 17 0 9 24 -17
51 -16 16 -28 43 -31 68 -4 30 -13 47 -33 61 -28 20 -40 24 -40 15z"/>
<path d="M1166 304 c-9 -117 -6 -316 5 -279 10 33 16 341 7 350 -3 3 -8 -29
-12 -71z"/>
<path d="M2484 323 c-19 -27 -60 -86 -90 -133 -30 -47 -66 -94 -79 -105 -24
-19 -46 -85 -29 -85 5 1 57 74 116 163 59 89 115 172 124 185 33 45 -6 21 -42
-25z"/>
<path d="M230 352 c0 -12 161 -113 173 -108 7 2 2 8 -10 11 -13 4 -23 11 -23
15 0 10 -116 90 -130 90 -5 0 -10 -3 -10 -8z"/>
<path d="M1 286 c-1 -26 5 -43 17 -52 22 -17 38 -18 23 0 -6 7 -17 31 -25 52
l-15 39 0 -39z"/>
<path d="M540 250 c-14 -27 -22 -240 -9 -240 5 0 9 8 9 18 0 9 5 66 10 126 6
60 9 111 6 113 -2 3 -10 -5 -16 -17z"/>
<path d="M2451 169 c-65 -69 -56 -79 11 -11 29 28 49 54 46 58 -4 3 -29 -18
-57 -47z"/>
<path d="M150 186 c0 -18 99 -121 107 -112 7 7 -60 97 -84 114 -21 13 -23 13
-23 -2z"/>
<path d="M329 153 c12 -24 26 -43 31 -43 20 0 9 27 -21 56 l-31 29 21 -42z"/>
<path d="M2464 111 c-85 -63 -135 -111 -115 -111 7 0 26 14 43 30 16 17 49 43
71 60 63 43 103 79 91 80 -6 0 -46 -26 -90 -59z"/>
<path d="M1565 115 c9 -40 23 -55 51 -55 30 0 31 16 2 31 -13 6 -31 21 -41 33
l-19 21 7 -30z"/>
<path d="M110 120 c0 -16 23 -60 32 -60 11 0 10 14 -4 45 -11 25 -28 34 -28
15z"/>
<path d="M2158 53 c-4 -46 -3 -61 6 -52 9 10 16 99 7 99 -5 0 -11 -21 -13 -47z"/>
</g>
</svg>
